<svg width="23" height="23" viewBox="0 0 23 23" fill="none" xmlns="http://www.w3.org/2000/svg">
<path d="M20.1648 14.7602C18.8954 14.7602 17.652 14.562 16.4736 14.1731C15.8985 13.9749 15.2454 14.1276 14.8674 14.5132L12.5311 16.2776C9.85044 14.8468 8.13481 13.1323 6.72354 10.4711L8.44024 8.19006C8.8724 7.7579 9.0273 7.12535 8.84209 6.53291C8.44999 5.34691 8.25072 4.10243 8.25072 2.8352C8.25072 1.93945 7.5218 1.21054 6.62606 1.21054H2.83518C1.93944 1.21054 1.21053 1.93945 1.21053 2.8352C1.21053 13.286 9.71397 21.7895 20.1648 21.7895C21.0606 21.7895 21.7895 21.0606 21.7895 20.1648V16.3848C21.7895 15.4891 21.0606 14.7602 20.1648 14.7602Z" fill="white"/>
</svg>
