<svg width="33" height="34" viewBox="0 0 33 34" fill="none" xmlns="http://www.w3.org/2000/svg">
<g clip-path="url(#clip0_18_1490)">
<rect y="0.5" width="33" height="33" rx="16.5" fill="white"/>
<mask id="mask0_18_1490" style="mask-type:alpha" maskUnits="userSpaceOnUse" x="0" y="0" width="33" height="34">
<rect y="0.5" width="33" height="33" rx="16.5" fill="#9C9C9C"/>
</mask>
<g mask="url(#mask0_18_1490)">
<path d="M32.9981 25.1583C32.9981 25.3389 32.9926 25.7308 32.9817 26.0335C32.9552 26.7742 32.8964 27.7299 32.8077 28.1653C32.6742 28.8197 32.4728 29.4374 32.2101 29.9515C31.8993 30.5597 31.503 31.1044 31.0319 31.5746C30.5619 32.0438 30.0177 32.4386 29.4105 32.7481C28.8937 33.0115 28.2722 33.213 27.614 33.3459C27.1829 33.4329 26.2343 33.4905 25.4984 33.5167C25.1954 33.5275 24.8035 33.533 24.6235 33.533L8.37398 33.5304C8.19329 33.5304 7.80148 33.5248 7.49877 33.514C6.75811 33.4874 5.8024 33.4287 5.36692 33.3399C4.71253 33.2064 4.09484 33.005 3.58076 32.7424C2.97258 32.4316 2.42786 32.0352 1.95771 31.5642C1.48849 31.0942 1.09365 30.55 0.784175 29.9427C0.520755 29.4259 0.31921 28.8044 0.186339 28.1463C0.0993277 27.7152 0.0417388 26.7666 0.0155386 26.0307C0.00477491 25.7277 -0.000671387 25.3358 -0.000671387 25.1558L0.00190674 8.90624C0.00190674 8.72554 0.00741748 8.3337 0.0182778 8.031C0.0448648 7.29033 0.103549 6.33462 0.192334 5.89918C0.325784 5.24479 0.5272 4.6271 0.789879 4.11299C1.10064 3.50484 1.49706 2.96008 1.96805 2.48993C2.43804 2.02074 2.98228 1.62587 3.58953 1.31637C4.10635 1.05301 4.7279 0.851468 5.386 0.718598C5.81709 0.631554 6.76568 0.573965 7.50161 0.547797C7.8046 0.537001 8.19658 0.531555 8.37653 0.531555L24.626 0.534166C24.8068 0.534166 25.1986 0.539676 25.5013 0.550537C26.2419 0.577124 27.1976 0.635808 27.6331 0.724592C28.2875 0.858042 28.9052 1.05946 29.4193 1.32214C30.0274 1.6329 30.5722 2.02932 31.0423 2.50031C31.5115 2.9703 31.9064 3.51451 32.2158 4.12179C32.4793 4.6386 32.6808 5.26013 32.8137 5.91822C32.9007 6.34935 32.9582 7.29791 32.9845 8.03387C32.9953 8.33686 33.0007 8.7288 33.0007 8.90882L32.9981 25.1583Z" fill="url(#paint0_linear_18_1490)"/>
</g>
<path d="M24.6009 8.98484C22.537 6.91928 19.7924 5.78116 16.8681 5.78C10.8428 5.78 5.93896 10.682 5.93655 16.7073C5.93578 18.6333 6.43914 20.5133 7.39573 22.1705L5.84489 27.8334L11.6398 26.3138C13.2365 27.1843 15.0341 27.6431 16.8637 27.6439H16.8682C22.8929 27.6439 27.7971 22.7413 27.7996 16.716C27.8007 13.796 26.6648 11.0504 24.6009 8.98484ZM16.8682 25.7983H16.8645C15.2341 25.7976 13.6351 25.3598 12.2401 24.5322L11.9083 24.3354L8.46949 25.2372L9.38738 21.8855L9.17128 21.5418C8.26179 20.0957 7.78144 18.4242 7.78216 16.708C7.78412 11.7 11.86 7.62566 16.8717 7.62566C19.2985 7.62658 21.5798 8.57264 23.2952 10.2894C25.0106 12.0062 25.9548 14.2883 25.9539 16.7153C25.9519 21.7237 21.8761 25.7983 16.8682 25.7983ZM21.8519 18.9957C21.5788 18.859 20.2359 18.1984 19.9855 18.1073C19.7352 18.0161 19.5531 17.9706 19.371 18.244C19.1889 18.5173 18.6655 19.1324 18.5061 19.3146C18.3468 19.4968 18.1874 19.5196 17.9143 19.3829C17.6411 19.2463 16.7611 18.9579 15.7178 18.0277C14.9058 17.3037 14.3576 16.4095 14.1983 16.1361C14.039 15.8627 14.1814 15.715 14.3181 15.5788C14.4409 15.4565 14.5912 15.2599 14.7278 15.1004C14.8643 14.941 14.9099 14.8271 15.0009 14.6449C15.092 14.4626 15.0464 14.3031 14.9782 14.1665C14.9099 14.0298 14.3636 12.6858 14.136 12.1391C13.9143 11.6067 13.6891 11.6787 13.5214 11.6703C13.3623 11.6624 13.18 11.6608 12.9979 11.6608C12.8159 11.6608 12.5199 11.7291 12.2696 12.0024C12.0192 12.2758 11.3136 12.9364 11.3136 14.2804C11.3136 15.6243 12.2923 16.9228 12.4289 17.105C12.5655 17.2872 14.3549 20.0453 17.0949 21.228C17.7466 21.5093 18.2553 21.6773 18.652 21.8032C19.3064 22.011 19.9018 21.9817 20.3725 21.9114C20.8972 21.833 21.9884 21.2508 22.2161 20.613C22.4437 19.9752 22.4437 19.4285 22.3754 19.3146C22.3071 19.2007 22.1251 19.1324 21.8519 18.9957Z" fill="white"/>
</g>
<rect x="0.5" y="1" width="32" height="32" rx="16" stroke="url(#paint1_linear_18_1490)"/>
<defs>
<linearGradient id="paint0_linear_18_1490" x1="16.5" y1="0.531555" x2="16.5" y2="33.533" gradientUnits="userSpaceOnUse">
<stop stop-color="#61FD7D"/>
<stop offset="1" stop-color="#2BB826"/>
</linearGradient>
<linearGradient id="paint1_linear_18_1490" x1="16.5" y1="0.5" x2="16.5" y2="33.5" gradientUnits="userSpaceOnUse">
<stop stop-color="#61FD7D"/>
<stop offset="1" stop-color="#2BB826"/>
</linearGradient>
<clipPath id="clip0_18_1490">
<rect y="0.5" width="33" height="33" rx="16.5" fill="white"/>
</clipPath>
</defs>
</svg>
